<?xml version="1.0" standalone="no"?>
<!DOCTYPE svg PUBLIC "-//W3C//DTD SVG 20010904//EN"
 "http://www.w3.org/TR/2001/REC-SVG-20010904/DTD/svg10.dtd">
<svg version="1.0" xmlns="http://www.w3.org/2000/svg"
 width="646.000000pt" height="651.000000pt" viewBox="0 0 646.000000 651.000000"
 preserveAspectRatio="xMidYMid meet">
<metadata>
Created by potrace 1.16, written by Peter Selinger 2001-2019
</metadata>
<g transform="translate(0.000000,651.000000) scale(0.100000,-0.100000)"
fill="#000000" stroke="none">
<path d="M2890 6349 c-637 -72 -1217 -318 -1710 -727 -93 -77 -300 -283 -384
-382 -421 -495 -675 -1088 -745 -1742 -14 -125 -14 -531 0 -656 46 -430 185
-871 385 -1225 70 -123 212 -336 288 -432 83 -104 228 -258 346 -367 449 -416
1017 -696 1623 -798 106 -18 165 -20 541 -20 406 0 427 1 562 25 941 168 1754
750 2230 1597 156 277 282 627 344 953 37 196 50 349 50 595 0 246 -13 399
-50 595 -151 793 -596 1499 -1252 1983 -450 333 -985 539 -1560 601 -113 13
-558 12 -668 0z m494 -1309 c345 -34 639 -209 832 -497 259 -386 257 -929 -5
-1317 -190 -281 -466 -445 -820 -486 -216 -26 -473 34 -676 156 -324 196 -522
540 -541 944 -18 383 144 742 440 971 154 120 378 210 570 228 44 5 86 9 91 9
6 1 55 -3 109 -8z m97 -2787 c60 -58 90 -82 94 -72 2 8 6 46 7 84 l3 70 41 3
c26 2 45 -2 53 -11 8 -10 11 -67 9 -193 -3 -176 -3 -179 -25 -182 -16 -2 -44
18 -105 77 -46 45 -86 81 -90 81 -5 0 -8 -36 -8 -80 0 -87 2 -85 -65 -80 -16
1 -33 7 -37 14 -4 6 -8 88 -8 182 0 166 5 194 33 194 5 0 49 -39 98 -87z m461
70 c20 -24 158 -321 161 -347 2 -18 -4 -21 -45 -24 -39 -3 -49 1 -60 17 -11
18 -23 21 -79 21 -54 0 -69 -4 -84 -20 -15 -16 -29 -20 -64 -18 -60 4 -59 9
29 193 38 81 70 151 70 155 0 13 30 40 44 40 7 0 20 -8 28 -17z m275 -5 c11
-13 28 -38 37 -55 9 -18 20 -33 24 -33 4 0 20 22 35 50 17 31 37 52 51 56 38
9 81 1 84 -17 2 -9 -23 -59 -55 -110 -54 -89 -57 -98 -63 -174 l-5 -80 -47 -3
-48 -3 0 65 c0 79 -7 98 -77 209 -31 49 -53 94 -49 102 9 25 88 20 113 -7z
m455 5 c9 -10 34 -58 56 -108 22 -49 56 -125 76 -168 20 -43 34 -82 31 -87
-12 -19 -91 -11 -110 10 -15 16 -31 20 -84 20 -55 0 -68 -3 -79 -20 -7 -11
-19 -20 -28 -20 -11 0 -7 9 14 30 28 27 37 30 94 30 56 0 68 -3 88 -25 24 -25
73 -34 85 -15 3 5 -30 85 -73 177 -59 125 -84 168 -97 168 -10 0 -22 -7 -26
-15 -26 -46 -149 -314 -149 -325 0 -8 10 -16 23 -18 19 -4 19 -4 -5 -6 -15 0
-30 4 -33 9 -8 12 152 367 169 374 21 9 33 6 48 -11z m329 -71 c42 -41 80 -75
85 -76 5 0 9 31 10 70 0 39 4 76 8 82 12 20 84 15 96 -7 11 -21 14 -328 4
-355 -13 -34 -50 -16 -129 64 -44 44 -83 80 -87 80 -5 0 -8 -34 -8 -75 0 -85
-11 -98 -70 -86 l-35 7 -3 178 c-3 240 1 244 129 118z m-3218 -39 l92 -117 5
114 c5 114 5 115 30 115 l24 0 1 -190 0 -190 -76 -3 -75 -3 -40 57 c-21 32
-60 84 -86 117 l-47 59 -3 -114 -3 -113 -25 0 -25 0 -3 180 c-1 98 0 185 2
192 4 9 27 13 71 13 l65 0 93 -117z m534 -73 c40 -101 69 -188 65 -192 -5 -5
-40 -8 -77 -6 -68 3 -68 3 -80 38 l-12 35 -70 3 -70 3 -18 -41 c-14 -30 -24
-40 -42 -40 -12 0 -23 6 -23 13 0 6 32 94 72 195 l72 183 55 -3 56 -3 72 -185z
m301 95 l44 -89 34 74 c41 88 59 110 91 110 19 0 23 -5 23 -29 0 -17 -6 -31
-16 -35 -8 -3 -32 -41 -52 -83 -30 -63 -38 -93 -42 -158 l-5 -80 -75 0 -75 0
-5 80 c-5 73 -10 89 -61 187 -31 59 -54 110 -51 113 3 3 38 4 77 3 l70 -3 43
-90z m491 68 c7 -15 28 -68 47 -118 20 -49 46 -118 60 -152 36 -92 36 -93 -46
-93 l-70 0 -17 38 c-18 37 -18 37 -86 40 l-68 3 -15 -36 c-15 -38 -34 -51 -58
-42 -12 5 -11 17 10 69 14 35 43 110 66 168 22 58 44 115 49 128 7 19 16 22
62 22 49 0 55 -3 66 -27z m-177 -809 c13 -5 16 -16 13 -52 -2 -26 -7 -58 -13
-72 -5 -14 -12 -41 -16 -61 -3 -20 -20 -55 -36 -78 -25 -34 -36 -41 -63 -40
l-32 1 32 9 c23 7 40 22 58 53 26 44 44 116 30 116 -19 0 -78 -46 -101 -79
-14 -20 -24 -31 -22 -26 17 44 39 70 85 101 58 39 73 75 27 66 -16 -3 -29 1
-34 9 -7 11 -12 10 -28 -4 -25 -23 -39 -21 -48 5 l-6 21 -19 -24 c-21 -28 -33
-22 -24 14 9 34 58 34 63 -1 5 -30 12 -28 57 18 22 22 44 38 50 35 5 -3 18 -8
27 -11z"/>
<path d="M2782 4107 l-52 -53 0 -170 0 -170 48 -47 c26 -26 54 -47 61 -47 7 0
35 24 62 53 l49 52 0 103 0 103 43 -3 42 -3 5 -102 5 -102 44 -51 c24 -27 51
-50 61 -50 10 0 38 24 64 53 l46 52 0 165 0 166 -53 52 -53 52 -160 0 -160 0
-52 -53z"/>
<path d="M3374 4109 l-54 -52 0 -164 0 -165 46 -54 c26 -30 54 -54 63 -54 9 0
37 20 61 45 l45 46 5 107 5 107 43 3 42 3 0 -101 0 -101 51 -55 c29 -30 57
-54 63 -54 7 0 34 23 61 50 l50 51 3 159 3 160 -57 60 -57 60 -159 0 -159 0
-55 -51z"/>
<path d="M3368 2208 c-2 -62 -2 -144 0 -181 l3 -68 37 3 37 3 3 75 c1 41 5 81
7 89 4 10 36 -16 99 -78 127 -124 127 -124 125 83 -2 88 -7 167 -12 174 -5 6
-25 12 -43 12 l-34 0 0 -85 c0 -59 -4 -85 -12 -85 -6 0 -51 38 -99 85 -47 47
-91 85 -97 85 -7 0 -12 -41 -14 -112z"/>
<path d="M3893 2308 c-14 -22 -153 -330 -153 -339 0 -19 60 -8 86 16 23 21 37
25 90 25 52 0 68 -4 85 -21 40 -40 114 -28 81 14 -5 6 -38 75 -72 152 -69 152
-76 165 -96 165 -7 0 -16 -6 -21 -12z"/>
<path d="M4120 2314 c0 -8 80 -144 102 -173 14 -18 18 -42 18 -98 0 -80 8 -91
55 -79 24 6 25 10 25 79 0 70 2 75 55 162 30 50 55 96 55 103 0 13 -58 17 -76
4 -6 -4 -24 -31 -40 -59 -16 -29 -33 -52 -39 -50 -5 2 -19 23 -32 46 -12 24
-28 50 -34 57 -11 13 -89 20 -89 8z"/>
<path d="M4888 2223 c-1 -54 -2 -125 -3 -158 -1 -99 2 -107 44 -103 l36 3 3
75 c1 41 5 81 7 89 4 10 37 -16 101 -79 62 -62 98 -90 105 -83 6 6 8 76 7 179
l-3 169 -37 3 -38 3 0 -85 c0 -63 -3 -86 -13 -86 -7 0 -51 38 -98 85 -48 47
-91 85 -98 85 -7 0 -12 -32 -13 -97z"/>
</g>
</svg>
